# xmcd
#
# Track frame offsets: 
#        150
#        27669
#        47605
#        64777
#        87996
#        115203
#        136054
#        156329
#        179197
#        204372
#
# Disc length: 3018 seconds
#
# Revision: 2
# Processed by: cddbd v1.5.2PL0 Copyright (c) Steve Scherf et al.
# Submitted via: ExactAudioCopy v1.0b3
#
DISCID=8d0bc80a
DTITLE=Leonard Cohen - Opus Collection [CD1)
DYEAR=2015
DGENRE=Folk-Rock
TTITLE0=Dance Me to the End of Love (Live)
TTITLE1=I'm Your Man
TTITLE2=Suzanne
TTITLE3=Famous Blue Raincoat
TTITLE4=Anthem
TTITLE5=Hallelujah
TTITLE6=Darkness
TTITLE7=Never Any Good
TTITLE8=Everybody Knows
TTITLE9=In My Secret Life
EXTD=
EXTT0=
EXTT1=
EXTT2=
EXTT3=
EXTT4=
EXTT5=
EXTT6=
EXTT7=
EXTT8=
EXTT9=
PLAYORDER=
